#format: frame checksums
#version: 2
#hash: MD5
#tb 0: 1001/30000
#media_type 0: video
#codec_id 0: rawvideo
#dimensions 0: 18x16
#sar 0: 1/1
#stream#, dts,        pts, duration,     size, hash
0,          0,          0,        1,      432, 9535aaa2ea26fbdc16e7fe9cba3fc9b4
0,          1,          1,        1,      432, 7f6e7ca33c0b27ff052dc2ab6721e37d
0,          2,          2,        1,      432, d37e3f169457a9c7f2a197353e39d3d6
0,          3,          3,        1,      432, f26d7d81dd81d051680ea2485e812705
0,          4,          4,        1,      432, 704b01955ced6d101b9e9315d3327f28
0,          5,          5,        1,      432, 30d46d6a0f6be383dede451cacf465f4
0,          6,          6,        1,      432, 83c7ed04f0af61ec665041967cbce05d
0,          7,          7,        1,      432, 152daf37dd37607886c50dd4c7796357
0,          8,          8,        1,      432, 609d807351ba74b1c432e3d0516add91
0,          9,          9,        1,      432, 67953f0c735984232cb6782217cdcdf6
